<?xml version="1.0" encoding="utf-8"?>
<svg width="1024px" height="1024px" viewBox="0 0 1024 1024" version="1.1" xmlns:xlink="http://www.w3.org/1999/xlink" xmlns="http://www.w3.org/2000/svg">
  <defs>
    <linearGradient gradientUnits="objectBoundingBox" x1="-0.16161616" y1="-0.16161616" x2="1.1623434" y2="1.1623434" id="gradient_1">
      <stop offset="26.404493%" stop-color="#3FAAF2" />
      <stop offset="50%" stop-color="#608EF1" />
      <stop offset="78.08989%" stop-color="#8E37D7" />
    </linearGradient>
    <filter filterUnits="userSpaceOnUse" color-interpolation-filters="sRGB" id="filter_1">
      <feFlood flood-opacity="0" result="BackgroundImageFix" />
      <feColorMatrix in="SourceAlpha" type="matrix" values="0 0 0 0 0 0 0 0 0 0 0 0 0 0 0 0 0 0 128 0" />
      <feOffset dx="8" dy="8" />
      <feGaussianBlur stdDeviation="3" />
      <feColorMatrix type="matrix" values="0 0 0 0 0.654902 0 0 0 0 0.654902 0 0 0 0 0.654902 0 0 0 0.4 0" />
      <feBlend mode="normal" in2="BackgroundImageFix" result="effect0_dropShadow" />
      <feBlend mode="normal" in="SourceGraphic" in2="effect0_dropShadow" result="shape" />
    </filter>
    <path d="M1024 0L1024 0L1024 1024L0 1024L0 0L1024 0Z" id="path_1" />
    <clipPath id="clip_1">
      <use xlink:href="#path_1" clip-rule="evenodd" fill-rule="evenodd" />
    </clipPath>
  </defs>
  <g id="Icon 1025">
    <path d="M1024 0L1024 0L1024 1024L0 1024L0 0L1024 0Z" id="Icon-1025" fill="#D3D3D3" fill-opacity="0" stroke="none" />
    <path d="M866 62C919.027 62 962 104.973 962 158L962 866C962 919.027 919.027 962 866 962L158 962C104.973 962 62 919.027 62 866L62 158C62 104.973 104.973 62 158 62L866 62Z" id="Rectangle" fill="#F5F5F5" stroke="#FFFFFF" stroke-width="5" clip-path="url(#clip_1)" />
    <path d="M866 62C919.027 62 962 104.973 962 158L962 866C962 919.027 919.027 962 866 962L158 962C104.973 962 62 919.027 62 866L62 158C62 104.973 104.973 62 158 62L866 62Z" id="Rectangle" fill="#F5F5F5" stroke="#FFFFFF" stroke-width="5" clip-path="url(#clip_1)" />
    <path d="M767.156 251.49C754.87 238.057 747.376 220.169 747.376 200.531C747.376 158.816 781.192 125 822.907 125C864.621 125 898.438 158.816 898.438 200.531C898.438 242.246 864.621 276.062 822.907 276.062C813.377 276.062 804.26 274.297 795.864 271.077L693.488 428.719L767.418 468.027C781.217 453.093 800.97 443.741 822.907 443.741C864.621 443.741 898.438 477.557 898.438 519.272C898.438 560.987 864.621 594.803 822.907 594.803C781.192 594.803 747.376 560.987 747.376 519.272C747.376 511.992 748.406 504.952 750.328 498.29L674.493 457.969L568.18 621.673C580.043 635.014 587.25 652.588 587.25 671.844C587.25 713.559 553.433 747.375 511.719 747.375C470.004 747.375 436.188 713.559 436.188 671.844C436.188 664.463 437.247 657.328 439.221 650.585L362.125 609.593L254.134 769.693C267.688 783.346 276.062 802.148 276.062 822.907C276.062 864.621 242.246 898.438 200.531 898.438C158.816 898.438 125 864.621 125 822.907C125 781.192 158.816 747.376 200.531 747.376C208.958 747.376 217.062 748.755 224.631 751.302L331.279 593.192L257.379 553.899C243.534 569.711 223.199 579.697 200.531 579.697C158.816 579.697 125 545.88 125 504.166C125 462.451 158.816 428.635 200.531 428.635C242.246 428.635 276.062 462.451 276.062 504.166C276.062 510.74 275.222 517.118 273.644 523.198L350.814 564.23L457.05 406.732C444.124 393.177 436.188 374.823 436.188 354.614C436.188 312.9 470.004 279.083 511.719 279.083C553.433 279.083 587.25 312.9 587.25 354.614C587.25 360.331 586.615 365.9 585.411 371.254L662.694 412.345L767.156 251.49ZM643.698 441.595L570.144 402.486C556.292 419.372 535.264 430.145 511.719 430.145C502.747 430.145 494.141 428.581 486.157 425.71L381.661 580.631L456.429 620.385C470.219 605.576 489.887 596.313 511.719 596.313C521.618 596.313 531.073 598.218 539.736 601.68L643.698 441.595Z" id="Oval-2-Union" fill="url(#gradient_1)" fill-rule="evenodd" stroke="none" filter="url(#filter_1)" clip-path="url(#clip_1)" />
    <path d="M767.156 251.49C754.87 238.057 747.376 220.169 747.376 200.531C747.376 158.816 781.192 125 822.907 125C864.621 125 898.438 158.816 898.438 200.531C898.438 242.246 864.621 276.062 822.907 276.062C813.377 276.062 804.26 274.297 795.864 271.077L693.488 428.719L767.418 468.027C781.217 453.093 800.97 443.741 822.907 443.741C864.621 443.741 898.438 477.557 898.438 519.272C898.438 560.987 864.621 594.803 822.907 594.803C781.192 594.803 747.376 560.987 747.376 519.272C747.376 511.992 748.406 504.952 750.328 498.29L674.493 457.969L568.18 621.673C580.043 635.014 587.25 652.588 587.25 671.844C587.25 713.559 553.433 747.375 511.719 747.375C470.004 747.375 436.188 713.559 436.188 671.844C436.188 664.463 437.247 657.328 439.221 650.585L362.125 609.593L254.134 769.693C267.688 783.346 276.062 802.148 276.062 822.907C276.062 864.621 242.246 898.438 200.531 898.438C158.816 898.438 125 864.621 125 822.907C125 781.192 158.816 747.376 200.531 747.376C208.958 747.376 217.062 748.755 224.631 751.302L331.279 593.192L257.379 553.899C243.534 569.711 223.199 579.697 200.531 579.697C158.816 579.697 125 545.88 125 504.166C125 462.451 158.816 428.635 200.531 428.635C242.246 428.635 276.062 462.451 276.062 504.166C276.062 510.74 275.222 517.118 273.644 523.198L350.814 564.23L457.05 406.732C444.124 393.177 436.188 374.823 436.188 354.614C436.188 312.9 470.004 279.083 511.719 279.083C553.433 279.083 587.25 312.9 587.25 354.614C587.25 360.331 586.615 365.9 585.411 371.254L662.694 412.345L767.156 251.49ZM643.698 441.595L570.144 402.486C556.292 419.372 535.264 430.145 511.719 430.145C502.747 430.145 494.141 428.581 486.157 425.71L381.661 580.631L456.429 620.385C470.219 605.576 489.887 596.313 511.719 596.313C521.618 596.313 531.073 598.218 539.736 601.68L643.698 441.595Z" id="Oval-2-Union" fill="url(#gradient_1)" fill-rule="evenodd" stroke="none" filter="url(#filter_1)" clip-path="url(#clip_1)" />
  </g>
</svg>