<?xml version="1.0" encoding="utf-8"?>
<svg width="1024px" height="1024px" viewBox="0 0 1024 1024" version="1.1" xmlns:xlink="http://www.w3.org/1999/xlink" xmlns="http://www.w3.org/2000/svg">
  <g id="Group">
    <path d="M850.189 167.469C833.923 149.684 824 126.001 824 100C824 44.7715 868.772 0 924 0C979.228 0 1024 44.7715 1024 100C1024 155.228 979.228 200 924 200C911.384 200 899.313 197.664 888.198 193.4L752.657 402.114L850.533 454.156C868.803 434.382 894.955 422 924 422C979.228 422 1024 466.772 1024 522C1024 577.228 979.228 622 924 622C868.772 622 824 577.228 824 522C824 512.362 825.363 503.043 827.908 494.224L727.508 440.841L586.756 657.579C602.46 675.241 612 698.507 612 724C612 779.228 567.228 824 512 824C456.772 824 412 779.228 412 724C412 714.228 413.402 704.784 416.015 695.857L313.945 641.585L170.972 853.552C188.915 871.627 200 896.519 200 924C200 979.228 155.228 1024 100 1024C44.7715 1024 0 979.228 0 924C0 868.772 44.7715 824 100 824C111.158 824 121.89 825.828 131.911 829.2L273.105 619.871L175.263 567.847C156.933 588.78 130.01 602 100 602C44.7715 602 0 557.228 0 502C0 446.772 44.7715 402 100 402C155.228 402 200 446.772 200 502C200 510.704 198.888 519.149 196.798 527.199L298.97 581.525L439.621 373.002C422.507 355.056 412 330.755 412 304C412 248.772 456.772 204 512 204C567.228 204 612 248.772 612 304C612 311.57 611.159 318.943 609.565 326.031L711.886 380.436L850.189 167.469ZM686.737 419.162L589.352 367.382C571.012 389.737 543.172 404 512 404C500.122 404 488.728 401.929 478.158 398.129L339.809 603.24L438.797 655.872C457.054 636.264 483.095 624 512 624C525.108 624 537.627 626.522 549.098 631.107L686.737 419.162Z" id="Oval-2-Union" fill="#000000" fill-rule="evenodd" stroke="none" />
  </g>
</svg>